<?xml version="1.0" standalone="no"?>
<!DOCTYPE svg PUBLIC "-//W3C//DTD SVG 20010904//EN"
 "http://www.w3.org/TR/2001/REC-SVG-20010904/DTD/svg10.dtd">
<svg version="1.0" xmlns="http://www.w3.org/2000/svg"
 width="700.000000pt" height="700.000000pt" viewBox="0 0 700.000000 700.000000"
 preserveAspectRatio="xMidYMid meet">
<metadata>
Created by potrace 1.11, written by Peter Selinger 2001-2013
</metadata>
<g transform="translate(0.000000,700.000000) scale(0.100000,-0.100000)"
fill="#000000" stroke="none">
<path d="M3216 6893 c-4 -15 -24 -73 -46 -128 -21 -55 -61 -165 -90 -245 -29
-80 -63 -172 -75 -205 -13 -33 -55 -150 -95 -260 -39 -110 -76 -209 -81 -220
-4 -11 -105 -285 -223 -609 -119 -324 -218 -591 -220 -593 -4 -4 -511 -138
-564 -149 -13 -2 -112 -27 -220 -55 -411 -106 -1361 -349 -1387 -355 -24 -6
-27 -7 -85 -23 -50 -15 -69 -19 -87 -20 -7 -1 -13 -5 -13 -9 0 -4 89 -77 197
-162 109 -85 205 -160 213 -167 8 -7 107 -85 220 -173 113 -88 220 -173 239
-188 19 -15 123 -96 230 -180 108 -84 203 -158 211 -165 8 -6 35 -28 60 -47
25 -19 52 -41 60 -47 8 -7 96 -76 195 -153 99 -78 187 -146 195 -153 8 -7 32
-25 53 -41 l38 -29 -6 -116 c-3 -64 -8 -136 -10 -161 -2 -25 -6 -99 -10 -165
-4 -66 -8 -136 -10 -155 -2 -19 -6 -89 -10 -155 -6 -117 -9 -159 -20 -315 -2
-41 -7 -118 -10 -170 -3 -52 -8 -124 -10 -160 -3 -36 -7 -105 -10 -155 -3 -49
-7 -119 -10 -155 -2 -36 -7 -110 -10 -165 -3 -55 -8 -127 -10 -160 -3 -33 -7
-100 -10 -150 -3 -49 -8 -128 -11 -174 -3 -46 -2 -82 3 -80 9 4 1021 682 1163
779 8 6 205 138 437 294 l423 283 142 -57 c79 -32 249 -99 378 -149 129 -51
249 -98 265 -106 38 -17 1026 -408 1040 -411 6 -2 106 -41 222 -88 117 -47
216 -86 219 -86 3 0 3 8 -1 18 -6 14 -37 121 -49 172 -7 25 -244 859 -272 954
-14 48 -27 95 -29 105 -2 9 -15 57 -30 106 -15 50 -30 104 -35 120 -11 45
-209 741 -230 810 -15 49 -16 63 -5 75 6 8 88 107 181 220 93 113 176 214 185
225 9 11 74 90 145 175 70 85 162 196 203 246 42 49 91 108 108 130 18 22 46
56 62 75 16 19 108 131 206 249 97 118 184 224 193 235 9 11 37 45 62 75 25
30 47 57 50 60 3 3 38 44 78 93 55 65 69 87 55 88 -33 2 -156 7 -348 13 -104
4 -233 9 -285 11 -52 2 -171 7 -265 10 -93 3 -215 8 -270 10 -90 4 -231 9
-545 20 -117 4 -433 16 -525 20 -33 1 -88 3 -123 4 l-62 1 -47 73 c-25 39 -62
98 -82 129 -20 31 -69 108 -109 170 -72 113 -246 388 -456 720 -61 95 -133
209 -161 253 -29 44 -139 217 -245 385 -106 168 -198 311 -205 318 -10 11 -14
9 -19 -15z"/>
</g>
</svg>
